<svg xmlns="http://www.w3.org/2000/svg" width="30.937" height="30.767" viewBox="0 0 30.937 30.767">
  <defs>
    <style>
      .cls-1 {
        fill: #5b5b5b;
      }
    </style>
  </defs>
  <path id="Shape" class="cls-1" d="M1.933,30.767A1.93,1.93,0,0,1,0,28.844V1.923A1.931,1.931,0,0,1,1.933,0H16.113a1.931,1.931,0,0,1,1.934,1.923V5.264a14.46,14.46,0,0,1,1.933-.136c6.042,0,10.957,3.693,10.957,8.233S26.022,21.6,19.98,21.6a14.377,14.377,0,0,1-1.933-.145v7.394a1.93,1.93,0,0,1-1.934,1.922Z"/>
</svg>
