<svg xmlns="http://www.w3.org/2000/svg" width="30.937" height="30.767" viewBox="0 0 30.937 30.767">
  <defs>
    <style>
      .cls-1 {
        fill: #5b5b5b;
      }
    </style>
  </defs>
  <g id="icon_2" data-name="icon 2" transform="translate(0)">
    <path id="Shape" class="cls-1" d="M18.6,25.8c-2.22,0-4.136-1.247-5.828-2.346l-.321-.208a33.815,33.815,0,0,1-6.247-5.21A34.739,34.739,0,0,1,.766,10.5,7.008,7.008,0,0,1,2.055,2.323L3.848.539a1.974,1.974,0,0,1,2.711,0l3.587,3.568a1.9,1.9,0,0,1,0,2.7L7.832,9.1a.624.624,0,0,0-.083.787,32.367,32.367,0,0,0,8.237,8.193A.646.646,0,0,0,16.777,18l2.314-2.3a1.969,1.969,0,0,1,2.711,0l3.586,3.567a1.905,1.905,0,0,1,0,2.7l-1.795,1.783A7.144,7.144,0,0,1,18.644,25.8Z" transform="translate(0 4.962)"/>
    <path id="Path" class="cls-1" d="M.665,0a.662.662,0,1,0,0,1.323,11.957,11.957,0,0,1,11.976,11.91.665.665,0,0,0,1.331,0A13.285,13.285,0,0,0,.665,0Z" transform="translate(16.965)"/>
    <path id="Path-2" data-name="Path" class="cls-1" d="M8.649,9.263a.665.665,0,0,0,1.331,0A9.3,9.3,0,0,0,.665,0a.662.662,0,1,0,0,1.323A7.97,7.97,0,0,1,8.649,9.263Z" transform="translate(16.965 3.97)"/>
    <path id="Path-3" data-name="Path" class="cls-1" d="M0,.662a.664.664,0,0,0,.665.662,3.986,3.986,0,0,1,3.992,3.97.665.665,0,0,0,1.331,0A5.313,5.313,0,0,0,.665,0,.664.664,0,0,0,0,.662Z" transform="translate(16.965 7.94)"/>
  </g>
</svg>
