<svg xmlns="http://www.w3.org/2000/svg" width="40.54" height="63.54" viewBox="0 0 40.54 63.54">
  <g id="money_coins_profit_earnings" data-name="money, coins, profit, earnings" transform="translate(0.77 0.77)">
    <path id="Rectangle" d="M0-.77H27.3a.77.77,0,0,1,.77.77V7.751a.77.77,0,0,1-.77.77H0a.77.77,0,0,1-.77-.77V0A.77.77,0,0,1,0-.77ZM26.53.77H.77V6.981H26.53Z" transform="translate(5.85 54.249)" fill="#fff"/>
    <path id="Rectangle-2" data-name="Rectangle" d="M0-.77H15.6a.77.77,0,0,1,.77.77V7.751a.77.77,0,0,1-.77.77H0a.77.77,0,0,1-.77-.77V0A.77.77,0,0,1,0-.77ZM14.831.77H.77V6.981H14.831Z" transform="translate(17.548 46.5)" fill="#fff"/>
    <path id="Rectangle-3" data-name="Rectangle" d="M0-.77H5.85A.77.77,0,0,1,6.62,0V7.751a.77.77,0,0,1-.77.77H0a.77.77,0,0,1-.77-.77V0A.77.77,0,0,1,0-.77ZM5.08.77H.77V6.981H5.08Z" transform="translate(5.85 46.5)" fill="#fff"/>
    <path id="Rectangle-4" data-name="Rectangle" d="M0-.77H5.851a.77.77,0,0,1,.77.77V7.751a.77.77,0,0,1-.77.77H0a.77.77,0,0,1-.77-.77V0A.77.77,0,0,1,0-.77ZM5.081.77H.77V6.981H5.081Z" transform="translate(11.7 46.5)" fill="#fff"/>
    <path id="Rectangle-5" data-name="Rectangle" d="M0-.77H21.45a.77.77,0,0,1,.77.77V7.751a.77.77,0,0,1-.77.77H0a.77.77,0,0,1-.77-.77V0A.77.77,0,0,1,0-.77ZM20.68.77H.77V6.981H20.68Z" transform="translate(1.951 38.751)" fill="#fff"/>
    <path id="Rectangle-6" data-name="Rectangle" d="M0-.77H5.85A.77.77,0,0,1,6.62,0V7.751a.77.77,0,0,1-.77.77H0a.77.77,0,0,1-.77-.77V0A.77.77,0,0,1,0-.77ZM5.08.77H.77V6.981H5.08Z" transform="translate(23.399 38.751)" fill="#fff"/>
    <path id="Path" d="M0,20.146a.77.77,0,0,1-.77-.77A20.023,20.023,0,0,1,5.169,5.129,20.272,20.272,0,0,1,19.5-.77a.77.77,0,0,1,.77.77,19.917,19.917,0,0,1-1.594,7.844,20.07,20.07,0,0,1-4.344,6.4,20.207,20.207,0,0,1-6.443,4.316A20.254,20.254,0,0,1,0,20.146ZM18.713.786A18.694,18.694,0,0,0,.787,18.59,18.694,18.694,0,0,0,18.713.786Z" transform="translate(19.5)" fill="#fff"/>
    <path id="Path-2" data-name="Path" d="M0-.77A20.25,20.25,0,0,1,7.888.813a20.206,20.206,0,0,1,6.442,4.316,20.07,20.07,0,0,1,4.344,6.4,19.917,19.917,0,0,1,1.594,7.844.77.77,0,0,1-.77.77,20.25,20.25,0,0,1-7.888-1.583,20.206,20.206,0,0,1-6.442-4.316,20.07,20.07,0,0,1-4.344-6.4A19.917,19.917,0,0,1-.77,0,.77.77,0,0,1,0-.77ZM18.712,18.59A18.694,18.694,0,0,0,.786.786,18.694,18.694,0,0,0,18.712,18.59Z" fill="#fff"/>
    <path id="Path-3" data-name="Path" d="M.39-.77A.77.77,0,0,1,1.16,0V19.375a.77.77,0,1,1-1.54,0V0A.77.77,0,0,1,.39-.77Z" transform="translate(19.11 19.376)" fill="#fff"/>
  </g>
</svg>
