<svg xmlns="http://www.w3.org/2000/svg" width="19.2" height="22.2" viewBox="0 0 19.2 22.2">
  <g id="bell_icon" data-name="bell icon" transform="translate(0.1 0.1)">
    <path id="Path" d="M3.5,4A3.424,3.424,0,0,1,0,.667.684.684,0,0,1,.7,0a.684.684,0,0,1,.7.667,2.054,2.054,0,0,0,2.1,2,2.054,2.054,0,0,0,2.1-2,.7.7,0,0,1,1.4,0A3.424,3.424,0,0,1,3.5,4Z" transform="translate(7 18)" fill="#FFFFFF"/>
    <path id="Path_-_Outline" data-name="Path - Outline" d="M3.5,4.1A3.524,3.524,0,0,1-.1.667.785.785,0,0,1,.7-.1a.785.785,0,0,1,.8.767,1.954,1.954,0,0,0,2,1.9,1.954,1.954,0,0,0,2-1.9.8.8,0,0,1,1.6,0A3.524,3.524,0,0,1,3.5,4.1ZM.7.1A.585.585,0,0,0,.1.667,3.324,3.324,0,0,0,3.5,3.9,3.324,3.324,0,0,0,6.9.667a.6.6,0,0,0-1.2,0,2.154,2.154,0,0,1-2.2,2.1A2.154,2.154,0,0,1,1.3.667.585.585,0,0,0,.7.1Z" transform="translate(7 18)" fill="#FFFFFF"/>
    <path id="Path-2" data-name="Path" d="M17.337,19H1.662A1.764,1.764,0,0,1,0,17.153a1.938,1.938,0,0,1,.581-1.4.667.667,0,0,1,.076-.063A7.453,7.453,0,0,0,2.85,10.334V7.389C2.85,3.315,5.834,0,9.5,0a2.58,2.58,0,0,1,.468.032.787.787,0,0,1,.586.911.728.728,0,0,1-.82.65A1.347,1.347,0,0,0,9.5,1.583c-2.88,0-5.225,2.6-5.225,5.805v2.945a9.107,9.107,0,0,1-2.758,6.619c-.014.013-.027.024-.042.036a.28.28,0,0,0-.05.164.255.255,0,0,0,.237.264H17.337a.255.255,0,0,0,.238-.264.27.27,0,0,0-.051-.164l-.041-.036a9.1,9.1,0,0,1-2.758-6.619V9.183a.716.716,0,1,1,1.425,0v1.15a7.455,7.455,0,0,0,2.2,5.355.7.7,0,0,1,.073.061,1.933,1.933,0,0,1,.582,1.4A1.764,1.764,0,0,1,17.337,19Z" fill="#FFFFFF"/>
    <path id="Path_-_Outline-2" data-name="Path - Outline" d="M17.337,19.1H1.662A1.864,1.864,0,0,1-.1,17.153a2.038,2.038,0,0,1,.612-1.476.76.76,0,0,1,.08-.068A7.363,7.363,0,0,0,2.75,10.334V7.389C2.75,3.259,5.778-.1,9.5-.1a2.668,2.668,0,0,1,.487.033A.888.888,0,0,1,10.653.957a.846.846,0,0,1-.8.746.729.729,0,0,1-.135-.013.744.744,0,0,0-.127-.008H9.5c-2.826,0-5.125,2.559-5.125,5.705v2.945a9.206,9.206,0,0,1-2.789,6.692l-.009.008-.027.023a.183.183,0,0,0-.025.1.156.156,0,0,0,.137.164H17.337a.156.156,0,0,0,.138-.164.174.174,0,0,0-.026-.1l-.023-.021-.01-.009a9.208,9.208,0,0,1-2.791-6.694V9.183a.816.816,0,1,1,1.625,0v1.15a7.366,7.366,0,0,0,2.16,5.279.788.788,0,0,1,.078.066,2.031,2.031,0,0,1,.612,1.474A1.864,1.864,0,0,1,17.337,19.1ZM9.5.1C5.888.1,2.95,3.37,2.95,7.389v2.945A7.563,7.563,0,0,1,.727,15.757l-.011.009a.568.568,0,0,0-.065.054A1.838,1.838,0,0,0,.1,17.153,1.664,1.664,0,0,0,1.662,18.9H17.337A1.665,1.665,0,0,0,18.9,17.153a1.831,1.831,0,0,0-.55-1.33.61.61,0,0,0-.064-.053l-.01-.009a7.566,7.566,0,0,1-2.226-5.427V9.183a.617.617,0,1,0-1.225,0v1.15a9.006,9.006,0,0,0,2.726,6.547l.009.008.027.023.01.008.008.01a.372.372,0,0,1,.071.223.356.356,0,0,1-.338.364H1.662a.356.356,0,0,1-.337-.364.378.378,0,0,1,.069-.222l.009-.012.012-.009.028-.024.008-.007a9,9,0,0,0,2.724-6.545V7.389c0-3.256,2.389-5.905,5.325-5.905h.089a.925.925,0,0,1,.163.012.631.631,0,0,0,.7-.567A.687.687,0,0,0,9.95.13,2.5,2.5,0,0,0,9.5.1Z" fill="#FFFFFF"/>
    <path id="Path-3" data-name="Path" d="M3.5,0A3.5,3.5,0,1,0,7,3.5,3.5,3.5,0,0,0,3.5,0Z" transform="translate(12)" fill="#e24047"/>
  </g>
</svg>
