<svg id="happy" xmlns="http://www.w3.org/2000/svg" width="57.6" height="57.6" viewBox="0 0 57.6 57.6">
  <path id="Path" d="M49.165,8.435A28.8,28.8,0,0,0,12.5,5.054a1.125,1.125,0,0,0,1.275,1.854,26.547,26.547,0,1,1-6.87,6.87A1.125,1.125,0,0,0,5.053,12.5,28.8,28.8,0,0,0,49.165,49.165a28.8,28.8,0,0,0,0-40.729Z" fill="#7ab06d"/>
  <path id="Path-2" data-name="Path" d="M1.125,2.25A1.125,1.125,0,1,0,.33.33h0a1.125,1.125,0,0,0,.8,1.92Z" transform="translate(8.105 8.106)" fill="#7ab06d"/>
  <path id="Path-3" data-name="Path" d="M2.212.834a1.125,1.125,0,0,0-2.174.582,11.624,11.624,0,0,0,11.212,8.6,11.624,11.624,0,0,0,11.212-8.6A1.125,1.125,0,0,0,20.289.834,9.37,9.37,0,0,1,11.25,7.769,9.37,9.37,0,0,1,2.212.834Z" transform="translate(17.55 35.761)" fill="#7ab06d"/>
  <path id="Path-4" data-name="Path" d="M2.212,4.449a2.966,2.966,0,0,1,5.731,0,1.125,1.125,0,1,0,2.173-.582,5.216,5.216,0,0,0-10.077,0,1.125,1.125,0,1,0,2.173.582Z" transform="translate(32.723 23.908)" fill="#7ab06d"/>
  <path id="Path-5" data-name="Path" d="M5.077,0A5.223,5.223,0,0,0,.039,3.867a1.125,1.125,0,1,0,2.173.582,2.966,2.966,0,0,1,5.731,0,1.125,1.125,0,1,0,2.173-.582A5.224,5.224,0,0,0,5.077,0Z" transform="translate(14.723 23.908)" fill="#7ab06d"/>
</svg>
