<svg xmlns="http://www.w3.org/2000/svg" width="23" height="15.761" viewBox="0 0 23 15.761">
  <g id="icon_items" data-name="icon items" transform="translate(0.5 0.5)">
    <g id="Group" transform="translate(0 14.238)">
      <path id="Line" d="M22,1.023H0a.5.5,0,0,1,0-1H22a.5.5,0,1,1,0,1Z" fill="#535b72"/>
    </g>
    <g id="Group_7" data-name="Group 7" transform="translate(1.048)">
      <path id="Stroke_1" data-name="Stroke 1" d="M20.4,9.113H-.5v-.5A9.062,9.062,0,0,1,2.224,2.737,10.566,10.566,0,0,1,5.5.431,10.8,10.8,0,0,1,9.952-.5,10.8,10.8,0,0,1,14.4.431a10.567,10.567,0,0,1,3.277,2.305A9.062,9.062,0,0,1,20.4,8.613Zm-19.876-1H19.376a8.585,8.585,0,0,0-2.413-4.68A9.53,9.53,0,0,0,9.952.5a9.529,9.529,0,0,0-7.01,2.932A8.585,8.585,0,0,0,.529,8.113Z" transform="translate(0 4.572)" fill="#535b72"/>
      <path id="Stroke_3" data-name="Stroke 3" d="M1.443-.5A1.9,1.9,0,0,1,2.824.1a2.064,2.064,0,0,1,0,2.824,1.9,1.9,0,0,1-2.763,0A2.065,2.065,0,0,1,.061.1,1.9,1.9,0,0,1,1.443-.5Zm0,3.017A.906.906,0,0,0,2.1,2.229,1.054,1.054,0,0,0,2.1.788a.9.9,0,0,0-1.318,0,1.054,1.054,0,0,0,0,1.442A.907.907,0,0,0,1.443,2.517Z" transform="translate(8.509)" fill="#535b72"/>
      <path id="Stroke_5" data-name="Stroke 5" d="M.115,2.055a.5.5,0,0,1-.5-.5V0a.5.5,0,1,1,1,0V1.555A.5.5,0,0,1,.115,2.055Z" transform="translate(9.837 3.017)" fill="#535b72"/>
    </g>
  </g>
</svg>
