<svg xmlns="http://www.w3.org/2000/svg" width="32.337" height="31.288" viewBox="0 0 32.337 31.288">
  <defs>
    <style>
      .cls-1 {
        fill: #3d5a80;
      }
    </style>
  </defs>
  <g id="icon_1" data-name="icon 1" transform="translate(0.7 0.7)">
    <g id="Group" transform="translate(10.607 5.274)">
      <path id="Path" class="cls-1" d="M9.445.777H0a.7.7,0,0,1-.7-.7.7.7,0,0,1,.7-.7H9.445a.7.7,0,0,1,0,1.4Z" transform="translate(0.015 5.846)"/>
      <path id="Path-2" data-name="Path" class="cls-1" d="M7.084,4.623a.7.7,0,0,1-.7-.7A3.054,3.054,0,0,0,3.542.7,3.054,3.054,0,0,0,.7,3.923a.7.7,0,0,1-.7.7.7.7,0,0,1-.7-.7A4.45,4.45,0,0,1,3.542-.7,4.45,4.45,0,0,1,7.784,3.923.7.7,0,0,1,7.084,4.623Z" transform="translate(1.188 1.734)"/>
      <path id="Path-3" data-name="Path" class="cls-1" d="M.069,1.162a.7.7,0,0,1-.7-.7V0a.7.7,0,0,1,.7-.7.7.7,0,0,1,.7.7V.462A.7.7,0,0,1,.069,1.162Z" transform="translate(4.668 0.077)"/>
    </g>
    <path id="Path-4" data-name="Path" class="cls-1" d="M30.777,15.644H.16A.858.858,0,0,1-.5,15.331a.854.854,0,0,1-.181-.708L2.185.165A1.078,1.078,0,0,1,3.241-.7H7.13a.7.7,0,0,1,.7.7.7.7,0,0,1-.7.7H3.506L.818,14.244h29.3L27.431.7H23.7A.7.7,0,0,1,23,0a.7.7,0,0,1,.7-.7h4a1.079,1.079,0,0,1,1.057.866L31.621,14.62a.859.859,0,0,1-.844,1.024Z" transform="translate(0 14.944)"/>
    <path id="Path-5" data-name="Path" class="cls-1" d="M0,3.337a.7.7,0,0,1-.656-.456.7.7,0,0,1,.411-.9L6.827-.656a.7.7,0,0,1,.9.411.7.7,0,0,1-.411.9L.245,3.293A.7.7,0,0,1,0,3.337Z" transform="translate(4.42 21.976)"/>
    <path id="Path-6" data-name="Path" class="cls-1" d="M11.679,5.1H0a.7.7,0,0,1-.7-.7A.7.7,0,0,1,0,3.7H11.679a1.959,1.959,0,0,0,.861-.2L20.9-.628a.7.7,0,0,1,.937.318.7.7,0,0,1-.318.937L13.16,4.751A3.366,3.366,0,0,1,11.679,5.1Z" transform="translate(4.42 20.218)"/>
    <path id="Path-7" data-name="Path" class="cls-1" d="M6.187,5.1a.7.7,0,0,1-.4-.129L-.405.571A.7.7,0,0,1-.571-.405.7.7,0,0,1,.405-.571l6.187,4.4A.7.7,0,0,1,6.187,5.1Z" transform="translate(21.214 22.855)"/>
    <path id="Path-8" data-name="Path" class="cls-1" d="M8.84-.7a9.441,9.441,0,0,1,9.538,9.32,9.2,9.2,0,0,1-2.157,5.9,9.614,9.614,0,0,1-5.062,3.139L9.5,20.609l-.072.07a.846.846,0,0,1-1.179,0l-.072-.07L6.518,17.66A9.348,9.348,0,0,1-.695,8.314,9.162,9.162,0,0,1,2.171,1.973,9.6,9.6,0,0,1,8.7-.7Zm0,19.629,1.408-2.5.311-.065a8.012,8.012,0,0,0,6.42-7.742A8.044,8.044,0,0,0,8.72.7,8.117,8.117,0,0,0,.7,8.36a7.96,7.96,0,0,0,6.415,8l.311.065Z" transform="translate(6.187)"/>
  </g>
</svg>
