<svg id="normal" xmlns="http://www.w3.org/2000/svg" width="57.6" height="57.6" viewBox="0 0 57.6 57.6">
  <path id="Path" d="M49.165,8.435A28.8,28.8,0,0,0,12.5,5.054a1.125,1.125,0,0,0,1.275,1.854,26.547,26.547,0,1,1-6.87,6.87A1.125,1.125,0,0,0,5.053,12.5,28.8,28.8,0,0,0,49.165,49.165a28.8,28.8,0,0,0,0-40.729Z" fill="#dea65b"/>
  <path id="Path-2" data-name="Path" d="M1.122,2.244A1.122,1.122,0,1,0,.364.295h0a1.122,1.122,0,0,0,.759,1.949Z" transform="translate(8.229 8.229)" fill="#dea65b"/>
  <path id="Path-3" data-name="Path" d="M9.029,2.25a1.125,1.125,0,0,0,0-2.25h-7.9a1.125,1.125,0,0,0,0,2.25Z" transform="translate(32.4 23.4)" fill="#dea65b"/>
  <path id="Path-4" data-name="Path" d="M9.029,0h-7.9a1.125,1.125,0,0,0,0,2.25h7.9a1.125,1.125,0,0,0,0-2.25Z" transform="translate(14.4 23.4)" fill="#dea65b"/>
  <path id="Path-5" data-name="Path" d="M0,1.125A1.125,1.125,0,0,0,1.125,2.25H21.376a1.125,1.125,0,0,0,0-2.25H1.125A1.125,1.125,0,0,0,0,1.125Z" transform="translate(17.227 37.158)" fill="#dea65b"/>
</svg>
