<svg xmlns="http://www.w3.org/2000/svg" width="22.8" height="18.95" viewBox="0 0 22.8 18.95">
  <g id="icon_order" data-name="icon order" transform="translate(0.4 0.4)">
    <g id="Group" transform="translate(0 0.612)">
      <path id="Path" d="M2.2,17.664a1.346,1.346,0,0,1-.973-.409,1.3,1.3,0,0,1-.371-.947L1.106,5.5A1.781,1.781,0,0,1-.4,3.758V0A.4.4,0,0,1,0-.4.4.4,0,0,1,.4,0V3.758a.988.988,0,0,0,1.005.967.512.512,0,0,1,.366.155.505.505,0,0,1,.141.366L1.655,16.329A.5.5,0,0,0,1.8,16.7a.563.563,0,0,0,.8,0,.5.5,0,0,0,.145-.367L2.487,5.242a.5.5,0,0,1,.141-.362.512.512,0,0,1,.366-.155A.988.988,0,0,0,4,3.758V0a.4.4,0,0,1,.8,0V3.758A1.782,1.782,0,0,1,3.294,5.5L3.544,16.31a1.3,1.3,0,0,1-.371.945A1.346,1.346,0,0,1,2.2,17.664Z" fill="#535b72"/>
      <path id="Path-2" data-name="Path" d="M.05,3.73a.4.4,0,0,1-.4-.4V0a.4.4,0,0,1,.8,0V3.33A.4.4,0,0,1,.05,3.73Z" transform="translate(1.418)" fill="#535b72"/>
      <path id="Path-3" data-name="Path" d="M.05,3.73a.4.4,0,0,1-.4-.4V0a.4.4,0,0,1,.8,0V3.33A.4.4,0,0,1,.05,3.73Z" transform="translate(2.884)" fill="#535b72"/>
    </g>
    <path id="Path-4" data-name="Path" d="M6.325,13.05a6.725,6.725,0,0,1,0-13.45.4.4,0,0,1,.4.4.4.4,0,0,1-.4.4A5.925,5.925,0,1,0,12.25,6.325a.4.4,0,1,1,.8,0A6.733,6.733,0,0,1,6.325,13.05Z" transform="translate(4.95 2.75)" fill="#535b72"/>
    <path id="Path-5" data-name="Path" d="M6.358,3.7A9.138,9.138,0,0,1-.289.824.4.4,0,0,1-.277.258.4.4,0,0,1,.289.271,8.345,8.345,0,0,0,6.358,2.9,8.431,8.431,0,0,0,12.89-.253a.4.4,0,0,1,.563-.057.4.4,0,0,1,.057.563A9.227,9.227,0,0,1,6.358,3.7Z" transform="translate(4.95 14.85)" fill="#535b72"/>
    <path id="Path-6" data-name="Path" d="M12.65,3.7a.4.4,0,0,1-.306-.142A9.009,9.009,0,0,0,5.424.4,9.114,9.114,0,0,0,.227,2a.4.4,0,0,1-.556-.1.4.4,0,0,1,.1-.556A9.91,9.91,0,0,1,5.424-.4a9.807,9.807,0,0,1,7.532,3.442.4.4,0,0,1-.306.658Z" transform="translate(5.5)" fill="#535b72"/>
    <path id="Path-7" data-name="Path" d="M.765-.4a1.165,1.165,0,0,1,.893.415A6.346,6.346,0,0,1,3.15,4.1V9.011a.949.949,0,0,1-.918.95H2.2v6.193a1.3,1.3,0,0,1-2.6,0V.76A1.165,1.165,0,0,1,.76-.4ZM.9,16.65a.5.5,0,0,0,.5-.495V9.192l.8-.031a.152.152,0,0,0,.148-.15V4.1A5.545,5.545,0,0,0,1.046.53.367.367,0,0,0,.765.4V0l0,.4A.363.363,0,0,0,.4.76V16.155A.5.5,0,0,0,.9,16.65Z" transform="translate(19.25 0.55)" fill="#535b72"/>
  </g>
</svg>
