<svg id="sad" xmlns="http://www.w3.org/2000/svg" width="57.6" height="57.6" viewBox="0 0 57.6 57.6">
  <path id="Path" d="M49.165,8.435A28.8,28.8,0,0,0,12.5,5.054a1.125,1.125,0,0,0,1.275,1.854,26.547,26.547,0,1,1-6.87,6.87A1.125,1.125,0,0,0,5.053,12.5,28.8,28.8,0,0,0,49.165,49.165a28.8,28.8,0,0,0,0-40.729Z" fill="#ed1d1d"/>
  <path id="Path-2" data-name="Path" d="M.328,4.726a1.216,1.216,0,0,0,0,1.663,1.087,1.087,0,0,0,1.587,0,12.742,12.742,0,0,1,18.611,0,1.087,1.087,0,0,0,1.587,0,1.215,1.215,0,0,0,0-1.663,14.915,14.915,0,0,0-21.784,0Z" transform="translate(17.205 36.655)" fill="#ed1d1d"/>
  <path id="Path-3" data-name="Path" d="M2.244,4.488A2.244,2.244,0,1,0,0,2.244,2.247,2.247,0,0,0,2.244,4.488Z" transform="translate(17.205 26.93)" fill="#ed1d1d"/>
  <path id="Path-4" data-name="Path" d="M0,2.244A2.244,2.244,0,1,0,2.244,0,2.247,2.247,0,0,0,0,2.244Z" transform="translate(35.906 26.93)" fill="#ed1d1d"/>
  <path id="Path-5" data-name="Path" d="M8.732.136a7.771,7.771,0,0,1-3.5.821,7.77,7.77,0,0,1-3.5-.821A1.253,1.253,0,0,0,.156.509.952.952,0,0,0,.58,1.9,10.351,10.351,0,0,0,5.236,2.992,10.351,10.351,0,0,0,9.892,1.9a.952.952,0,0,0,.425-1.39A1.253,1.253,0,0,0,8.732.136Z" transform="translate(14.213 20.197)" fill="#ed1d1d"/>
  <path id="Path-6" data-name="Path" d="M10.317.509A1.253,1.253,0,0,0,8.732.136a7.773,7.773,0,0,1-3.5.821,7.772,7.772,0,0,1-3.5-.821A1.253,1.253,0,0,0,.156.509.952.952,0,0,0,.58,1.9,10.351,10.351,0,0,0,5.236,2.992,10.352,10.352,0,0,0,9.892,1.9a.952.952,0,0,0,.425-1.39Z" transform="translate(32.914 20.197)" fill="#ed1d1d"/>
  <path id="Path-7" data-name="Path" d="M1.122,2.244A1.122,1.122,0,1,0,.364.295h0a1.122,1.122,0,0,0,.759,1.949Z" transform="translate(8.229 8.229)" fill="#ed1d1d"/>
</svg>
