<svg id="icon_stats" data-name="icon stats" xmlns="http://www.w3.org/2000/svg" width="14" height="18" viewBox="0 0 14 18">
  <path id="Rectangle" d="M2,1A1,1,0,0,0,1,2V9.571a1,1,0,0,0,1,1H4a1,1,0,0,0,1-1V2A1,1,0,0,0,4,1H2M2,0H4A2,2,0,0,1,6,2V9.571a2,2,0,0,1-2,2H2a2,2,0,0,1-2-2V2A2,2,0,0,1,2,0Z" transform="translate(0 6.429)" fill="#535b72"/>
  <path id="Rectangle-2" data-name="Rectangle" d="M2,1A1,1,0,0,0,1,2V16a1,1,0,0,0,1,1H4a1,1,0,0,0,1-1V2A1,1,0,0,0,4,1H2M2,0H4A2,2,0,0,1,6,2V16a2,2,0,0,1-2,2H2a2,2,0,0,1-2-2V2A2,2,0,0,1,2,0Z" transform="translate(8)" fill="#535b72"/>
</svg>
