<svg xmlns="http://www.w3.org/2000/svg" width="23" height="19.889" viewBox="0 0 23 19.889">
  <g id="icon_tables" data-name="icon tables" transform="translate(0.5 0.5)">
    <g id="table">
      <path id="Path" d="M1.614-.5h10.77A1.444,1.444,0,0,1,13.823.946V2.022L14.5,8.791a.968.968,0,0,1-.782,1.046,1.6,1.6,0,0,0-.578.264,2.545,2.545,0,0,1-2.881,0,1.552,1.552,0,0,0-1.815,0A2.415,2.415,0,0,1,7,10.547,2.415,2.415,0,0,1,5.559,10.1a1.44,1.44,0,0,0-.907-.293,1.44,1.44,0,0,0-.907.293,2.415,2.415,0,0,1-1.441.447A2.414,2.414,0,0,1,.863,10.1a1.594,1.594,0,0,0-.577-.264A.968.968,0,0,1-.5,8.791L.176,2.022V.946A1.444,1.444,0,0,1,1.614-.5ZM13.5,8.86l-.674-6.814V.946A.443.443,0,0,0,12.385.5H1.614a.443.443,0,0,0-.438.446l0,1.15L1.1,2.89.5,8.86a2.569,2.569,0,0,1,.894.394,1.439,1.439,0,0,0,.907.293,1.44,1.44,0,0,0,.907-.293,2.415,2.415,0,0,1,1.441-.447,2.415,2.415,0,0,1,1.441.447A1.44,1.44,0,0,0,7,9.547a1.44,1.44,0,0,0,.907-.293,2.545,2.545,0,0,1,2.881,0,1.552,1.552,0,0,0,1.815,0A2.571,2.571,0,0,1,13.5,8.86Z" transform="translate(4 6.43)" fill="#535b72"/>
      <path id="Path-2" data-name="Path" d="M.055,2.108a.5.5,0,0,1-.5-.5V0a.5.5,0,0,1,1,0V1.608A.5.5,0,0,1,.055,2.108Z" transform="translate(5.98 17.281)" fill="#535b72"/>
      <path id="Path-3" data-name="Path" d="M.055,2.108a.5.5,0,0,1-.5-.5V0a.5.5,0,0,1,1,0V1.608A.5.5,0,0,1,.055,2.108Z" transform="translate(7.58 17.281)" fill="#535b72"/>
      <path id="Path-4" data-name="Path" d="M.055,2.108a.5.5,0,0,1-.5-.5V0a.5.5,0,0,1,1,0V1.608A.5.5,0,0,1,.055,2.108Z" transform="translate(14.38 17.281)" fill="#535b72"/>
      <path id="Path-5" data-name="Path" d="M.055,2.108a.5.5,0,0,1-.5-.5V0a.5.5,0,0,1,1,0V1.608A.5.5,0,0,1,.055,2.108Z" transform="translate(15.98 17.281)" fill="#535b72"/>
      <path id="Path-6" data-name="Path" d="M7.6.555H0a.5.5,0,1,1,0-1H7.6a.5.5,0,1,1,0,1Z" transform="translate(4.4 8.42)" fill="#535b72"/>
      <path id="Path-7" data-name="Path" d="M0,16.576a.5.5,0,0,1-.5-.5V8.138L.705-.073a.5.5,0,0,1,.567-.422.5.5,0,0,1,.422.567L.5,8.211v7.864A.5.5,0,0,1,0,16.576Z" transform="translate(20.8 2.813)" fill="#535b72"/>
      <path id="Path-8" data-name="Path" d="M2,.555H0a.5.5,0,0,1,0-1H2a.5.5,0,0,1,0,1Z" transform="translate(18.8 11.233)" fill="#535b72"/>
      <path id="Path-9" data-name="Path" d="M2,.555H0a.5.5,0,0,1,0-1H2a.5.5,0,0,1,0,1Z" transform="translate(18.8 12.84)" fill="#535b72"/>
      <path id="Path-10" data-name="Path" d="M1.2,16.576a.5.5,0,0,1-.5-.5V8.211L-.495.073A.5.5,0,0,1-.073-.495a.5.5,0,0,1,.567.422L1.7,8.138v7.937A.5.5,0,0,1,1.2,16.576Z" transform="translate(0 2.813)" fill="#535b72"/>
      <path id="Path-11" data-name="Path" d="M2,.555H0a.5.5,0,0,1,0-1H2a.5.5,0,0,1,0,1Z" transform="translate(0.8 11.233)" fill="#535b72"/>
      <path id="Path-12" data-name="Path" d="M2,.555H0a.5.5,0,0,1,0-1H2a.5.5,0,0,1,0,1Z" transform="translate(0.8 12.84)" fill="#535b72"/>
      <path id="Path-13" data-name="Path" d="M.8,2.509A1.34,1.34,0,0,1-.5,1.136V.006A.507.507,0,0,1,.006-.5h.1l.13.056L.8-.1l.553-.337L1.464-.5h.13A.507.507,0,0,1,2.1.006v1.13A1.341,1.341,0,0,1,.8,2.509ZM.5.888v.248a.347.347,0,0,0,.3.373.349.349,0,0,0,.3-.374V.887l-.3.184Z" transform="translate(10)" fill="#535b72"/>
      <path id="Path-14" data-name="Path" d="M.052,2.108a.5.5,0,0,1-.5-.5L-.442,0a.5.5,0,0,1,.5-.5.5.5,0,0,1,.5.5L.552,1.609A.5.5,0,0,1,.052,2.108Z" transform="translate(10.78 2.009)" fill="#535b72"/>
      <path id="Path-15" data-name="Path" d="M1.6,3.313a.5.5,0,0,1-.49-.405l-.29-1.5L.994.5H.606l.175.907-.29,1.5a.5.5,0,0,1-.586.4.5.5,0,0,1-.4-.586l.253-1.312L-.429.418A.771.771,0,0,1-.266-.222.76.76,0,0,1,.322-.5h.956a.76.76,0,0,1,.586.276.774.774,0,0,1,.164.639l-.191.991.253,1.312a.5.5,0,0,1-.491.595Z" transform="translate(10 3.617)" fill="#535b72"/>
    </g>
  </g>
</svg>
