<svg id="iconfinder_5305170_bird_social_media_social_network_tweet_twitter_icon" data-name="iconfinder_5305170_bird_social media_social network_tweet_twitter_icon" xmlns="http://www.w3.org/2000/svg" width="24" height="21.286" viewBox="0 0 24 21.286">
  <path id="Path" d="M21.558,5.995c0-.233,0-.464-.014-.695A10.578,10.578,0,0,0,24,2.517a9.194,9.194,0,0,1-2.828.846A5.339,5.339,0,0,0,23.337.39a9.383,9.383,0,0,1-3.127,1.3A4.745,4.745,0,0,0,16.62,0a5.194,5.194,0,0,0-4.929,5.381A5.857,5.857,0,0,0,11.819,6.6,13.63,13.63,0,0,1,1.67.981,5.709,5.709,0,0,0,3.195,8.157,4.578,4.578,0,0,1,.96,7.484v.068a5.3,5.3,0,0,0,3.95,5.27,4.517,4.517,0,0,1-2.223.092,5.014,5.014,0,0,0,4.6,3.733,9.368,9.368,0,0,1-6.115,2.306A9.186,9.186,0,0,1,0,18.876a13.1,13.1,0,0,0,7.548,2.411C16.6,21.29,21.558,13.1,21.558,5.995Z" fill="#949aa9"/>
</svg>
